<?xml version="1.0" encoding="utf-8"?>
<!-- Generator: Adobe Illustrator 16.0.0, SVG Export Plug-In . SVG Version: 6.00 Build 0)  -->
<!DOCTYPE svg PUBLIC "-//W3C//DTD SVG 1.1//EN" "http://www.w3.org/Graphics/SVG/1.1/DTD/svg11.dtd">
<svg version="1.1" id="Layer_1" xmlns="http://www.w3.org/2000/svg" xmlns:xlink="http://www.w3.org/1999/xlink" x="0px" y="0px"
	 width="415px" height="414.996px" viewBox="0 0 415 414.996" enable-background="new 0 0 415 414.996" xml:space="preserve">
<path fill-rule="evenodd" clip-rule="evenodd" d="M163.614,87.214h53.129c19.612,2.331,48.146,19.13,58.675,41.475
	c2.895,6.27,4.421,7.234,6.832,25.801c1.286,9.565,1.93,16.639,6.189,20.577c6.028,5.466,28.373,1.769,32.794,5.225l3.376,2.652
	l2.01,4.18l0.723,3.376l-0.482,61.407c-0.24,41.716-34.16,75.876-75.956,75.876h-87.289c-41.796,0-75.956-34.16-75.956-75.876
	v-88.655C87.658,121.455,121.818,87.214,163.614,87.214L163.614,87.214z M164.579,236.313c-8.038,0-14.549,6.511-14.549,14.468
	c0,7.877,6.511,14.468,14.549,14.468h85.601c7.957,0,14.468-6.591,14.468-14.468c0-7.957-6.511-14.468-14.468-14.468H164.579
	L164.579,236.313z M164.579,149.346c-8.038,0-14.549,6.511-14.549,14.468s6.511,14.548,14.549,14.548h42.117
	c8.037,0,14.548-6.591,14.548-14.548s-6.511-14.468-14.548-14.468H164.579z"/>
</svg>
