<?xml version="1.0" encoding="utf-8"?>
<!-- Generator: Adobe Illustrator 16.0.0, SVG Export Plug-In . SVG Version: 6.00 Build 0)  -->
<!DOCTYPE svg PUBLIC "-//W3C//DTD SVG 1.1//EN" "http://www.w3.org/Graphics/SVG/1.1/DTD/svg11.dtd">
<svg version="1.1" id="Layer_1" xmlns="http://www.w3.org/2000/svg" xmlns:xlink="http://www.w3.org/1999/xlink" x="0px" y="0px"
	 width="414.998px" height="414.996px" viewBox="0 0 414.998 414.996" enable-background="new 0 0 414.998 414.996"
	 xml:space="preserve">
<g>
	<path d="M296.407,197.121l47.576-39.646c0.281-0.224,0.531-0.497,0.736-0.817c0.986-1.55,0.531-3.607-1.02-4.595l-76.992-49.194
		c-1.211-0.906-2.928-0.897-4.139,0.114l-50.91,42.688l-49.729-42.661v0.001c-1.094-0.937-2.713-1.086-3.98-0.263l-79.307,51.656
		c-0.365,0.213-0.693,0.498-0.965,0.854c-1.117,1.464-0.836,3.556,0.627,4.674l51.217,38.966l-51.111,38.887
		c-0.377,0.264-0.705,0.611-0.953,1.033c-0.938,1.586-0.412,3.631,1.174,4.568l52.777,31.256l26.658,15.789l0,0
		c1.135,0.67,2.609,0.627,3.721-0.223l49.797-38.291l49.893,38.291l0.002-0.002c1.053,0.803,2.527,0.932,3.732,0.211l27.385-16.43
		l50.922-30.551c0.342-0.189,0.658-0.441,0.926-0.756c1.197-1.398,1.033-3.502-0.365-4.699L296.407,197.121z M211.401,243.65
		l-70.525-45.012l71.369-44.991l72.633,43.551L211.401,243.65z"/>
	<path d="M211.536,257.971l-51.59,41.127l-28.529-17.553l-0.008-6.902l0.014,14.93c-0.039,1.115,0.482,2.223,1.477,2.889
		l76.129,50.844c1.08,0.754,2.553,0.824,3.725,0.062l77.914-50.535c0.986-0.641,1.521-1.717,1.516-2.812l0.254-9.805l-29.33,17.719
		L211.536,257.971z"/>
</g>
</svg>
