<?xml version="1.0" encoding="utf-8"?>
<!-- Generator: Adobe Illustrator 16.0.0, SVG Export Plug-In . SVG Version: 6.00 Build 0)  -->
<!DOCTYPE svg PUBLIC "-//W3C//DTD SVG 1.1//EN" "http://www.w3.org/Graphics/SVG/1.1/DTD/svg11.dtd">
<svg version="1.1" id="Layer_1" xmlns="http://www.w3.org/2000/svg" xmlns:xlink="http://www.w3.org/1999/xlink" x="0px" y="0px"
	 width="415px" height="414.996px" viewBox="0 0 415 414.996" enable-background="new 0 0 415 414.996" xml:space="preserve">
<path d="M321.548,165.366L210.82,88.71c-2.464-1.913-5.982-2.091-8.668-0.202L93.276,165.472c-2.084,1.287-3.473,3.592-3.473,6.221
	v137.479c0,4.035,3.271,7.307,7.308,7.307h220.776c4.037,0,7.307-3.271,7.307-7.307V171.692
	C325.194,168.99,323.728,166.631,321.548,165.366z M206.399,103.369l98.488,68.183l-88.674,58.68l-4.716-3.251
	c-2.458-1.962-6.005-2.172-8.719-0.285l-4.708,3.278l-88.061-58.469L206.399,103.369z M104.419,185.296l80.784,53.639
	l-80.784,56.252V185.296z M120.381,301.863l86.601-60.302l4.728,3.259c0.188,0.145,0.384,0.278,0.584,0.402l82.161,56.641H120.381z
	 M310.581,295.286l-81.424-56.133l81.424-53.883V295.286z"/>
</svg>
