<?xml version="1.0" encoding="utf-8"?>
<!-- Generator: Adobe Illustrator 16.0.0, SVG Export Plug-In . SVG Version: 6.00 Build 0)  -->
<!DOCTYPE svg PUBLIC "-//W3C//DTD SVG 1.1//EN" "http://www.w3.org/Graphics/SVG/1.1/DTD/svg11.dtd">
<svg version="1.1" id="Layer_1" xmlns="http://www.w3.org/2000/svg" xmlns:xlink="http://www.w3.org/1999/xlink" x="0px" y="0px"
	 width="414.999px" height="414.996px" viewBox="0 0 414.999 414.996" enable-background="new 0 0 414.999 414.996"
	 xml:space="preserve">
<path fill-rule="evenodd" clip-rule="evenodd" d="M364.297,207.498c0,40.752-33.036,73.788-73.789,73.788
	c-40.752,0-73.787-33.035-73.787-73.788c0-40.753,33.035-73.788,73.787-73.788C331.261,133.709,364.297,166.745,364.297,207.498
	L364.297,207.498z M198.278,207.498c0,40.752-33.035,73.788-73.788,73.788s-73.788-33.035-73.788-73.788
	c0-40.753,33.035-73.788,73.788-73.788S198.278,166.745,198.278,207.498L198.278,207.498z M184.396,207.498
	c0-33.085-26.82-59.905-59.905-59.905s-59.905,26.819-59.905,59.905c0,33.085,26.82,59.904,59.905,59.904
	S184.396,240.583,184.396,207.498z"/>
</svg>
