<?xml version="1.0" encoding="utf-8"?>
<!-- Generator: Adobe Illustrator 16.0.0, SVG Export Plug-In . SVG Version: 6.00 Build 0)  -->
<!DOCTYPE svg PUBLIC "-//W3C//DTD SVG 1.1//EN" "http://www.w3.org/Graphics/SVG/1.1/DTD/svg11.dtd">
<svg version="1.1" id="Layer_1" xmlns="http://www.w3.org/2000/svg" xmlns:xlink="http://www.w3.org/1999/xlink" x="0px" y="0px"
	 width="415px" height="414.996px" viewBox="0 0 415 414.996" enable-background="new 0 0 415 414.996" xml:space="preserve">
<g>
	<path d="M190.583,292.284l-47.592-38.988c-8.967,2.763-18.389,3.162-27.379,1.351l68.867,68.859c5.611,5.615,14.711,5.615,20.32,0
		l70.104-70.101c5.617-5.612,5.617-14.711,0-20.323l-3.604-3.604l-74.645,62.899C193.462,294.962,190.583,292.284,190.583,292.284z"
		/>
	<path d="M179.2,218.306l11.156,14.777c0,0,3.283,4.818,6.994-0.331l32.309-44.918l-24.859-24.86c-5.609-5.609-14.709-5.609-20.32,0
		l-9.623,9.622C183.05,186.862,184.271,203.546,179.2,218.306z"/>
	<path d="M310.435,87.853l-76.18,104.577l-37.045,50.854c-3.244,3.619-6.105,1.715-7.232,0.37
		c-0.387-0.456-8.096-10.55-18.066-23.625c5.945-13.605,5.539-29.468-1.578-42.908c-1.676-3.161-3.719-6.19-6.141-9.022
		c-17.74-20.729-48.922-23.166-69.648-5.424c-20.734,17.735-23.16,48.916-5.424,69.648c5.963,6.972,13.447,11.866,21.543,14.627
		c10.816,3.688,22.727,3.562,33.564-0.561l46.547,37.437c0,0,2.545,2.364,5.357,0.081l70.287-59.311l76.932-64.919V87.854
		L310.435,87.853z"/>
</g>
</svg>
