<?xml version="1.0" encoding="utf-8"?>
<!-- Generator: Adobe Illustrator 16.0.0, SVG Export Plug-In . SVG Version: 6.00 Build 0)  -->
<!DOCTYPE svg PUBLIC "-//W3C//DTD SVG 1.1//EN" "http://www.w3.org/Graphics/SVG/1.1/DTD/svg11.dtd">
<svg version="1.1" id="Layer_1" xmlns="http://www.w3.org/2000/svg" xmlns:xlink="http://www.w3.org/1999/xlink" x="0px" y="0px"
	 width="415px" height="414.996px" viewBox="0 0 415 414.996" enable-background="new 0 0 415 414.996" xml:space="preserve">
<path d="M331.312,86.24c-33.747-33.745-74.246-50.62-122.165-50.62c-47.922,0-88.421,16.875-122.17,50.62
	c-33.748,33.749-50.622,74.247-50.622,122.172c0,47.921,16.874,88.419,50.622,122.168c33.749,33.744,74.248,50.621,122.17,50.621
	c47.919,0,88.418-16.877,122.165-50.621c33.746-33.749,50.624-74.247,50.624-122.168C381.937,160.487,365.059,119.989,331.312,86.24
	z M265.842,342.053c-4.749,1.965-8.775,3.377-13.5,4.727v-25.65c0-13.499-4.725-23.625-14.171-30.375
	c37.119-2.7,77.618-17.55,77.618-81.67c0-17.549-5.399-32.398-16.874-44.547c4.725-13.5,4.05-28.35-2.024-43.872l-4.05-0.677
	c-5.369-0.893-22.275,4.727-41.174,17.549c-13.496-4.05-27.674-6.073-41.845-6.073c-14.174,0-28.349,2.023-41.174,6.073
	c-33.072-20.922-45.222-17.549-45.897-16.872c-6.074,15.522-6.749,30.372-2.024,43.872c-11.476,12.149-16.874,26.999-16.874,44.547
	c0,64.12,40.497,78.97,77.621,81.67c-8.775,6.076-13.5,16.199-13.5,30.375v26.323c-5.399-1.35-10.775-3.435-15.523-5.399
	c-34.402-14.234-62.441-42.662-76.946-76.947c-15.194-35.912-15.194-77.479,0-113.391c14.505-34.285,42.66-62.441,76.946-76.947
	c35.914-15.193,77.478-15.193,113.392,0c34.286,14.506,62.441,42.662,76.946,76.947c15.193,35.912,15.193,77.479,0,113.391
	C328.283,299.391,300.24,327.818,265.842,342.053z"/>
</svg>
