<?xml version="1.0" encoding="utf-8"?>
<!-- Generator: Adobe Illustrator 16.0.0, SVG Export Plug-In . SVG Version: 6.00 Build 0)  -->
<!DOCTYPE svg PUBLIC "-//W3C//DTD SVG 1.1//EN" "http://www.w3.org/Graphics/SVG/1.1/DTD/svg11.dtd">
<svg version="1.1" id="Layer_1" xmlns="http://www.w3.org/2000/svg" xmlns:xlink="http://www.w3.org/1999/xlink" x="0px" y="0px"
	 width="415px" height="415px" viewBox="0 0 415 415" enable-background="new 0 0 415 415" xml:space="preserve">
<g>
	<polygon points="368.346,131.916 314.569,131.916 314.569,78.139 301.125,78.139 301.125,131.916 247.348,131.916 247.348,145.36 
		301.125,145.36 301.125,199.137 314.569,199.137 314.569,145.36 368.346,145.36 	"/>
	<path d="M188.43,232.613c-7.512-5.317-21.877-18.25-21.877-25.851c0-8.908,2.543-13.298,15.951-23.774
		c13.745-10.74,23.472-25.836,23.472-43.4c0-20.905-9.311-41.283-26.79-48.004h26.352l18.599-13.445c0,0-62.333,0-83.108,0
		c-37.26,0-72.326,28.228-72.326,60.926c0,33.413,25.398,60.381,63.304,60.381c2.636,0,5.197-0.052,7.705-0.232
		c-2.46,4.709-4.219,10.015-4.219,15.521c0,9.286,4.995,16.815,11.312,22.96c-4.771,0-9.381,0.138-14.407,0.138
		c-46.15,0-81.671,29.393-81.671,59.872c0,30.017,38.94,48.795,85.092,48.795c52.613,0,81.672-29.853,81.672-59.872
		C217.488,262.557,210.387,248.142,188.43,232.613L188.43,232.613z M144.031,190.975L144.031,190.975
		c-21.414-0.64-41.762-23.955-45.458-52.069c-3.695-28.119,10.661-49.641,32.069-49.001c21.406,0.644,41.763,23.205,45.46,51.32
		C179.796,169.344,165.436,191.614,144.031,190.975L144.031,190.975z M135.646,333.229L135.646,333.229
		c-31.898,0-54.938-20.192-54.938-44.449c0-23.773,28.576-43.562,60.475-43.218c7.445,0.079,14.382,1.277,20.681,3.315
		c17.315,12.042,29.737,18.847,33.241,32.57c0.66,2.784,1.018,5.646,1.018,8.57C196.123,314.273,180.493,333.229,135.646,333.229z"
		/>
</g>
</svg>
