<?xml version="1.0" encoding="utf-8"?>
<!-- Generator: Adobe Illustrator 16.0.0, SVG Export Plug-In . SVG Version: 6.00 Build 0)  -->
<!DOCTYPE svg PUBLIC "-//W3C//DTD SVG 1.1//EN" "http://www.w3.org/Graphics/SVG/1.1/DTD/svg11.dtd">
<svg version="1.1" id="Layer_1" xmlns="http://www.w3.org/2000/svg" xmlns:xlink="http://www.w3.org/1999/xlink" x="0px" y="0px"
	 width="415px" height="414.996px" viewBox="0 0 415 414.996" enable-background="new 0 0 415 414.996" xml:space="preserve">
<path fill-rule="evenodd" clip-rule="evenodd" d="M267.167,333.948c0,9.139,0,18.121,0,27.245c-39.782,0-79.456,0-119.334,0
	c0-9.097,0-18,0-27.179c1.044-0.056,1.901-0.138,2.759-0.14c5.935-0.015,11.881-0.255,17.8,0.049
	c7.143,0.366,14.275-7.657,14.271-13.998c-0.015-19.421-0.006-38.841-0.004-58.261c0.001-20.725,0.017-41.45,0-62.175
	c-0.016-21.208-0.078-42.417-0.091-63.625c-0.007-10.486,0.087-20.972,0.069-31.458c-0.012-7.168-5.059-13.731-11.603-14.972
	c-1.968-0.373-4.042-0.231-6.067-0.242c-5.604-0.026-11.207-0.009-17.007-0.009c0-9.433,0-18.73,0-28.198
	c39.687,0,79.319,0,119.133,0c0,9.333,0,18.617,0,28.162c-6.619,0-13.021,0.001-19.421-0.001c-7.474-0.001-13.37,4.678-14.998,12
	c-0.277,1.251-0.291,2.578-0.291,3.87c0.002,56.659,0.024,113.319,0.033,169.979c0.002,14.55-0.041,29.1-0.041,43.649
	c0.002,8.773,6.424,15.189,15.186,15.192c5.689,0.002,11.38-0.038,17.07-0.042C265.422,333.795,266.214,333.889,267.167,333.948z"/>
</svg>
