<?xml version="1.0" encoding="utf-8"?>
<!-- Generator: Adobe Illustrator 16.0.0, SVG Export Plug-In . SVG Version: 6.00 Build 0)  -->
<!DOCTYPE svg PUBLIC "-//W3C//DTD SVG 1.1//EN" "http://www.w3.org/Graphics/SVG/1.1/DTD/svg11.dtd">
<svg version="1.1" id="Layer_1" xmlns="http://www.w3.org/2000/svg" xmlns:xlink="http://www.w3.org/1999/xlink" x="0px" y="0px"
	 width="414.999px" height="414.996px" viewBox="0 0 414.999 414.996" enable-background="new 0 0 414.999 414.996"
	 xml:space="preserve">
<path fill-rule="evenodd" clip-rule="evenodd" d="M228.133,290.547c1.954-6.442,7.084-13.067,9.718-21.085
	c3.589-10.926,2.856-14.989,3.102-26.682c25.351,5.295,29.308,2.311,49.507-6.572c2.599,3.448,10.368,60.064,11.027,68.854
	c-2.824,1.783-5.597,2.51-8.498,4.641c-3.739,2.747-3.552,4.228-6.781,6.875L228.133,290.547L228.133,290.547z M165.02,148.909
	c-5.489,5.131-27.186,25.005-20.078,34.776c8.752,12.031,16.909,22.356,25.52,34.081l47.705,63.896
	c1.377,1.757,1.857,2.259,3.194,3.5c0.201-0.188,0.469-0.445,0.593-0.575l1.129-1.167c0.15-0.174,0.359-0.418,0.509-0.602
	c1.181-1.46,0.357-0.396,1.337-1.89c1.027-1.567,1.534-2.494,2.337-4.068c1.621-3.18,2.854-6.396,3.862-9.936
	c5.832-20.479,0.47-29.806-8.368-41.917l-34.523-46.258C184.11,173.198,168.441,151.276,165.02,148.909L165.02,148.909z
	 M170.792,143.065c1.188,4.345,19.284,27.263,22.981,32.257c7.556,10.205,14.884,20.053,22.685,30.454
	c5.488,7.319,17.152,26.244,25.105,29.062c15.547,5.508,31.951,2.405,44.364-4.458c-3.062-6.312-54.764-74.03-62.568-84.661
	l-12.651-17.143C203.93,121.732,176.021,141.15,170.792,143.065L170.792,143.065z M191.067,118.095
	c-5.901,2.286-19.543,9.248-23.168,9.879c-2.078,3.066-7.126,6.127-10.062,8.313c-11.544,8.594-15.948,17.348-22.7,28.311
	l-2.009,2.641c-4.698-4.916-9.381-11.185-13.253-17.382c2.793-15.453,23.859-34.633,34.377-40.75
	c6.202-3.722,16.012-9.299,24.328-10.714l7.7-1.774c2.959,2.791,13.897,16.724,14.269,19.575L191.067,118.095L191.067,118.095z
	 M110.109,135.984c-4.573-27.165,38.029-62.244,66.629-50.947c-3.374,2.317-34.893,7.83-55.153,34.143
	C117.341,124.692,111.851,135.073,110.109,135.984L110.109,135.984z M207.812,296.279c6.086,8.357,8.276,7.555,21.047,13.006
	c28.489,12.158,66.953,27.905,94.201,40.617c-2.116-31.002-9.832-82.588-14.389-115.175
	c-1.75-12.517-111.069-156.845-120.835-164.022c-33.709-24.778-119.836,38.14-89.554,78.895
	c7.407,9.969,13.399,18.042,20.897,28.013C222.366,314.826,126.558,184.723,207.812,296.279z"/>
</svg>
