<?xml version="1.0" encoding="utf-8"?>
<!-- Generator: Adobe Illustrator 16.0.0, SVG Export Plug-In . SVG Version: 6.00 Build 0)  -->
<!DOCTYPE svg PUBLIC "-//W3C//DTD SVG 1.1//EN" "http://www.w3.org/Graphics/SVG/1.1/DTD/svg11.dtd">
<svg version="1.1" id="Layer_1" xmlns="http://www.w3.org/2000/svg" xmlns:xlink="http://www.w3.org/1999/xlink" x="0px" y="0px"
	 width="415px" height="414.996px" viewBox="0 0 415 414.996" enable-background="new 0 0 415 414.996" xml:space="preserve">
<path fill-rule="evenodd" clip-rule="evenodd" d="M336.49,196.938L272.754,88.042c-7.671-13.286-5.412-12.829-19.658-12.927H107.755
	c-18.13,0-32.964,14.834-32.964,32.964v198.837c0,18.13,14.835,32.964,32.964,32.964h145.199c8.864,0,10.576,0.14,15.11-8.037
	l68.742-114.57C340.973,210.396,341.811,204.057,336.49,196.938z M237.697,129.158c17.564,0,31.891,14.325,31.891,31.89
	s-14.326,31.89-31.891,31.89c-17.563,0-31.889-14.325-31.889-31.89S220.134,129.158,237.697,129.158z M174.164,114.277
	c17.564,0,31.89,14.325,31.89,31.89c0,17.563-14.325,31.89-31.89,31.89s-31.89-14.326-31.89-31.89
	C142.274,128.603,156.6,114.277,174.164,114.277z M97.616,193.751c0-17.564,14.325-31.89,31.89-31.89s31.89,14.325,31.89,31.89
	s-14.325,31.89-31.89,31.89S97.616,211.315,97.616,193.751z M148.387,288.104c-17.564,0-31.89-14.325-31.89-31.89
	s14.325-31.89,31.89-31.89s31.89,14.325,31.89,31.89S165.951,288.104,148.387,288.104z M211.921,302.986
	c-17.564,0-31.89-14.326-31.89-31.89c0-17.564,14.325-31.891,31.89-31.891s31.89,14.326,31.89,31.891
	C243.811,288.66,229.485,302.986,211.921,302.986z M256.58,255.403c-17.564,0-31.89-14.325-31.89-31.89
	c0-17.563,14.325-31.89,31.89-31.89s31.891,14.326,31.891,31.89C288.471,241.078,274.145,255.403,256.58,255.403z"/>
</svg>
