<?xml version="1.0" encoding="utf-8"?>
<!-- Generator: Adobe Illustrator 16.0.0, SVG Export Plug-In . SVG Version: 6.00 Build 0)  -->
<!DOCTYPE svg PUBLIC "-//W3C//DTD SVG 1.1//EN" "http://www.w3.org/Graphics/SVG/1.1/DTD/svg11.dtd">
<svg version="1.1" id="Layer_1" xmlns="http://www.w3.org/2000/svg" xmlns:xlink="http://www.w3.org/1999/xlink" x="0px" y="0px"
	 width="415px" height="414.996px" viewBox="0 0 415 414.996" enable-background="new 0 0 415 414.996" xml:space="preserve">
<path fill-rule="evenodd" clip-rule="evenodd" d="M265.285,165.12c23.399,0,42.374-18.976,42.374-42.375
	c0-23.397-18.975-42.374-42.374-42.374c-23.397,0-42.376,18.977-42.376,42.374C222.909,146.145,241.888,165.12,265.285,165.12
	L265.285,165.12z M126.603,154.335c14.036,0,25.424-11.381,25.424-25.426c0-14.038-11.388-25.426-25.424-25.426
	c-14.04,0-25.426,11.388-25.426,25.426C101.177,142.954,112.562,154.335,126.603,154.335L126.603,154.335z M126.603,158.956
	c13.2,0,24.672,7.371,30.528,18.224c7.741-8.362,18.811-13.599,31.108-13.599c16.89,0,31.468,9.878,38.277,24.175
	c10.252-9.279,23.848-14.932,38.769-14.932c31.919,0,57.784,25.866,57.784,57.788c0,1.3-0.107,2.571-0.191,3.849h0.191v100.164
	h-115.57v-52.393h-61.637v-26.196H91.931V195.94h0.116c-0.056-0.771-0.116-1.533-0.116-2.313
	C91.931,174.475,107.448,158.956,126.603,158.956L126.603,158.956z M188.239,157.923c17.157,0,31.07-13.904,31.07-31.07
	c0-17.157-13.913-31.073-31.07-31.073c-17.158,0-31.074,13.916-31.074,31.073C157.165,144.019,171.081,157.923,188.239,157.923z"/>
</svg>
