<?xml version="1.0" encoding="utf-8"?>
<!-- Generator: Adobe Illustrator 16.0.0, SVG Export Plug-In . SVG Version: 6.00 Build 0)  -->
<!DOCTYPE svg PUBLIC "-//W3C//DTD SVG 1.1//EN" "http://www.w3.org/Graphics/SVG/1.1/DTD/svg11.dtd">
<svg version="1.1" id="Layer_1" xmlns="http://www.w3.org/2000/svg" xmlns:xlink="http://www.w3.org/1999/xlink" x="0px" y="0px"
	 width="415px" height="414.996px" viewBox="0 0 415 414.996" enable-background="new 0 0 415 414.996" xml:space="preserve">
<path d="M192.245,93.008v211.224c-48.224-6.044-84.52-32.39-84.52-63.983c0-29.94,32.625-55.16,77.102-62.861v-26.839
	c-68.028,8.221-119.364,45.256-119.364,89.701c0,46.051,55.103,84.143,126.782,90.479l42.263-19.895V72.363L192.245,93.008
	L192.245,93.008z M241.925,150.558L241.925,150.558v26.83c16.564,2.868,31.495,8.155,43.698,15.223l-22.913,12.918l81.726,17.781
	l-5.832-60.568l-21.69,12.228C296.697,162.725,270.815,154.051,241.925,150.558z"/>
</svg>
