<?xml version="1.0" encoding="utf-8"?>
<!-- Generator: Adobe Illustrator 16.0.0, SVG Export Plug-In . SVG Version: 6.00 Build 0)  -->
<!DOCTYPE svg PUBLIC "-//W3C//DTD SVG 1.1//EN" "http://www.w3.org/Graphics/SVG/1.1/DTD/svg11.dtd">
<svg version="1.1" id="Layer_1" xmlns="http://www.w3.org/2000/svg" xmlns:xlink="http://www.w3.org/1999/xlink" x="0px" y="0px"
	 width="415px" height="414.996px" viewBox="0 0 415 414.996" enable-background="new 0 0 415 414.996" xml:space="preserve">
<path fill-rule="evenodd" clip-rule="evenodd" d="M207.505,70.305c-75.767,0-137.195,61.424-137.195,137.193
	c0,56.177,33.781,104.437,82.12,125.655c-0.386-9.58-0.069-21.08,2.388-31.503c2.638-11.138,17.653-74.756,17.653-74.756
	s-4.384-8.759-4.384-21.707c0-20.33,11.784-35.514,26.459-35.514c12.479,0,18.508,9.373,18.508,20.596
	c0,12.545-8.001,31.309-12.116,48.688c-3.437,14.554,7.297,26.424,21.653,26.424c25.994,0,43.5-33.385,43.5-72.941
	c0-30.067-20.252-52.573-57.085-52.573c-41.616,0-67.542,31.034-67.542,65.7c0,11.952,3.523,20.383,9.044,26.908
	c2.538,2.998,2.891,4.205,1.972,7.647c-0.658,2.523-2.17,8.601-2.795,11.01c-0.913,3.474-3.729,4.716-6.869,3.433
	c-19.168-7.825-28.096-28.815-28.096-52.412c0-38.972,32.868-85.702,98.051-85.702c52.379,0,86.853,37.903,86.853,78.59
	c0,53.817-29.92,94.024-74.024,94.024c-14.812,0-28.744-8.007-33.517-17.1c0,0-7.965,31.608-9.651,37.713
	c-2.908,10.578-8.603,21.149-13.809,29.389c12.34,3.644,25.373,5.626,38.883,5.626c75.76,0,137.186-61.424,137.186-137.194
	C344.69,131.729,283.265,70.305,207.505,70.305z"/>
</svg>
