<?xml version="1.0" encoding="utf-8"?>
<!-- Generator: Adobe Illustrator 16.0.0, SVG Export Plug-In . SVG Version: 6.00 Build 0)  -->
<!DOCTYPE svg PUBLIC "-//W3C//DTD SVG 1.1//EN" "http://www.w3.org/Graphics/SVG/1.1/DTD/svg11.dtd">
<svg version="1.1" id="Layer_1" xmlns="http://www.w3.org/2000/svg" xmlns:xlink="http://www.w3.org/1999/xlink" x="0px" y="0px"
	 width="415px" height="414.996px" viewBox="0 0 415 414.996" enable-background="new 0 0 415 414.996" xml:space="preserve">
<path d="M104.674,162.269c11.881,0,22.914,4.243,33.104,12.723l102.703-51.766v-3.393c0-28.011,22.914-50.079,50.924-50.079
	c28.008,0,50.924,22.068,50.924,50.079c0,29.705-22.916,50.923-50.924,50.923c-12.734,0-23.77-4.244-33.104-11.88l-102.703,51.762
	v2.547v3.397l102.703,50.924c9.334-6.791,20.369-11.885,33.104-11.885c28.008,0,50.924,22.92,50.924,50.928
	c0,28.01-22.916,50.93-50.924,50.93c-28.01,0-50.924-22.92-50.924-50.93v-2.541l-102.703-51.779
	c-9.334,7.641-20.369,11.885-33.104,11.885c-28.008,0-50.924-22.92-50.924-50.929C53.75,185.175,76.666,162.269,104.674,162.269z"/>
</svg>
