<?xml version="1.0" encoding="utf-8"?>
<!-- Generator: Adobe Illustrator 16.0.0, SVG Export Plug-In . SVG Version: 6.00 Build 0)  -->
<!DOCTYPE svg PUBLIC "-//W3C//DTD SVG 1.1//EN" "http://www.w3.org/Graphics/SVG/1.1/DTD/svg11.dtd">
<svg version="1.1" id="Layer_1" xmlns="http://www.w3.org/2000/svg" xmlns:xlink="http://www.w3.org/1999/xlink" x="0px" y="0px"
	 width="415px" height="414.996px" viewBox="0 0 415 414.996" enable-background="new 0 0 415 414.996" xml:space="preserve">
<path d="M332.725,236.113c1.914-8.766,2.934-17.868,2.934-27.205c0-69.987-56.746-126.734-126.747-126.734
	c-7.385,0-14.634,0.634-21.671,1.853c-11.328-7.137-24.73-11.277-39.104-11.277c-40.596,0-73.508,32.912-73.508,73.494
	c0,13.578,3.693,26.272,10.108,37.176c-1.678,8.244-2.573,16.761-2.573,25.488c0,70,56.746,126.747,126.747,126.747
	c7.933,0,15.691-0.733,23.213-2.126c10.345,5.559,22.169,8.717,34.74,8.717c40.595,0,73.507-32.899,73.507-73.495
	C340.371,257.025,337.611,245.948,332.725,236.113z M273.914,269.482c-5.862,8.297-14.525,14.871-25.749,19.538
	c-11.115,4.62-24.44,6.963-39.607,6.963c-18.202,0-33.465-3.202-45.377-9.521c-8.516-4.599-15.536-10.829-20.868-18.518
	c-5.383-7.766-8.114-15.471-8.114-22.901c0-4.644,1.78-8.671,5.287-11.967c3.472-3.265,7.921-4.92,13.228-4.92
	c4.354,0,8.111,1.307,11.164,3.888c2.918,2.473,5.422,6.13,7.432,10.855c2.246,5.145,4.695,9.487,7.282,12.908
	c2.485,3.29,6.062,6.057,10.63,8.216c4.594,2.175,10.788,3.279,18.408,3.279c10.479,0,19.066-2.239,25.529-6.65
	c6.312-4.309,9.378-9.481,9.378-15.814c0-5.003-1.6-8.937-4.894-12.022c-3.449-3.226-7.998-5.734-13.522-7.458
	c-5.763-1.796-13.582-3.733-23.254-5.758c-13.153-2.816-24.329-6.161-33.217-9.94c-9.088-3.867-16.415-9.227-21.772-15.936
	c-5.443-6.809-8.202-15.354-8.202-25.399c0-9.575,2.896-18.204,8.606-25.649c5.668-7.392,13.945-13.138,24.602-17.08
	c10.519-3.89,23.031-5.862,37.188-5.862c11.319,0,21.271,1.309,29.577,3.892c8.354,2.602,15.397,6.115,20.932,10.438
	c5.573,4.354,9.721,9.014,12.323,13.854c2.629,4.888,3.965,9.752,3.965,14.458c0,4.528-1.75,8.644-5.201,12.229
	c-3.47,3.61-7.85,5.44-13.017,5.44c-4.693,0-8.366-1.146-10.917-3.404c-2.371-2.097-4.832-5.366-7.562-10.068
	c-3.16-6.005-6.986-10.739-11.375-14.074c-4.258-3.24-11.377-4.884-21.159-4.884c-9.086,0-16.474,1.823-21.96,5.42
	c-5.287,3.467-7.856,7.441-7.856,12.149c0,2.888,0.827,5.302,2.528,7.378c1.801,2.201,4.342,4.132,7.553,5.738
	c3.332,1.674,6.764,3.005,10.203,3.955c3.521,0.977,9.433,2.426,17.536,4.298c10.256,2.202,19.685,4.668,28.019,7.333
	c8.44,2.702,15.735,6.033,21.682,9.903c6.072,3.952,10.878,9.03,14.289,15.09c3.42,6.084,5.153,13.593,5.153,22.319
	C282.782,251.638,279.8,261.154,273.914,269.482z"/>
</svg>
