<?xml version="1.0" encoding="utf-8"?>
<!-- Generator: Adobe Illustrator 16.0.0, SVG Export Plug-In . SVG Version: 6.00 Build 0)  -->
<!DOCTYPE svg PUBLIC "-//W3C//DTD SVG 1.1//EN" "http://www.w3.org/Graphics/SVG/1.1/DTD/svg11.dtd">
<svg version="1.1" id="Layer_1" xmlns="http://www.w3.org/2000/svg" xmlns:xlink="http://www.w3.org/1999/xlink" x="0px" y="0px"
	 width="415px" height="414.996px" viewBox="0 0 415 414.996" enable-background="new 0 0 415 414.996" xml:space="preserve">
<g>
	<path d="M346.354,185.345c-5.036,0-10.789,1.438-17.269,3.597c-5.035-38.127-36.692-67.628-76.984-67.628
		c-20.149,0-36.692,6.474-50.366,18.705v132.387H344.92v-0.716c30.938-2.16,43.887-20.148,43.887-43.174
		C388.807,204.772,371.539,185.345,346.354,185.345z"/>
	<polygon points="171.515,150.095 171.515,272.406 193.813,272.406 193.813,147.214 187.347,156.562 	"/>
	<path d="M148.488,147.936v124.47h15.113v-124.47c-2.886,0-6.476-0.722-9.354-0.722
		C152.086,147.214,149.929,147.214,148.488,147.936z"/>
	<path d="M118.271,272.406h15.109v-121.59c-5.039,1.439-10.074,3.598-15.109,7.188V272.406z"/>
	<path d="M88.051,197.577v74.829h15.105V172.394c-6.468,8.634-10.07,17.267-12.228,26.621
		C90.929,199.014,90.208,198.297,88.051,197.577z"/>
	<path d="M57.827,193.979v76.989c3.602,0.722,6.479,1.438,11.514,1.438h3.604v-79.145c-0.724-0.721-2.17-0.721-3.604-0.721
		C64.307,192.54,61.429,193.261,57.827,193.979z"/>
	<path d="M28.33,232.834c0,11.513,5.035,21.585,14.39,30.217v-60.436C34.082,210.528,28.33,220.599,28.33,232.834z"/>
</g>
</svg>
