<?xml version="1.0" encoding="utf-8"?>
<!-- Generator: Adobe Illustrator 16.0.0, SVG Export Plug-In . SVG Version: 6.00 Build 0)  -->
<!DOCTYPE svg PUBLIC "-//W3C//DTD SVG 1.1//EN" "http://www.w3.org/Graphics/SVG/1.1/DTD/svg11.dtd">
<svg version="1.1" id="Layer_1" xmlns="http://www.w3.org/2000/svg" xmlns:xlink="http://www.w3.org/1999/xlink" x="0px" y="0px"
	 width="415px" height="414.996px" viewBox="0 0 415 414.996" enable-background="new 0 0 415 414.996" xml:space="preserve">
<g>
	<polygon fill-rule="evenodd" clip-rule="evenodd" points="96.695,227.285 96.695,342.282 281.381,342.282 281.381,227.285 
		261.614,227.285 261.614,323.467 116.941,323.508 116.941,227.285 	"/>
	<path fill-rule="evenodd" clip-rule="evenodd" d="M209.217,96.8l30.401,45.771c10.133,14.494,22.075,31.306,30.922,45.727
		l19.828-12.339l-60.734-92.246L209.217,96.8z"/>
	<polygon fill-rule="evenodd" clip-rule="evenodd" points="131.76,304.697 243.154,304.699 243.323,280.683 132.338,280.701 	"/>
	<polygon fill-rule="evenodd" clip-rule="evenodd" points="276.913,63.934 295.008,173.244 317.975,170.174 299.168,60.238 	"/>
	<polygon fill-rule="evenodd" clip-rule="evenodd" points="139.326,213.218 246.426,242.047 253.254,219.325 145.53,190.307 	"/>
	<polygon fill-rule="evenodd" clip-rule="evenodd" points="159.333,155.808 254.942,212.406 267.302,192.452 171.096,135.221 	"/>
	<polygon fill-rule="evenodd" clip-rule="evenodd" points="132.748,263.547 243.001,273.921 246.112,250.666 134.988,240.017 	"/>
</g>
</svg>
