<?xml version="1.0" encoding="utf-8"?>
<!-- Generator: Adobe Illustrator 16.0.0, SVG Export Plug-In . SVG Version: 6.00 Build 0)  -->
<!DOCTYPE svg PUBLIC "-//W3C//DTD SVG 1.1//EN" "http://www.w3.org/Graphics/SVG/1.1/DTD/svg11.dtd">
<svg version="1.1" id="Layer_1" xmlns="http://www.w3.org/2000/svg" xmlns:xlink="http://www.w3.org/1999/xlink" x="0px" y="0px"
	 width="414.999px" height="414.996px" viewBox="0 0 414.999 414.996" enable-background="new 0 0 414.999 414.996"
	 xml:space="preserve">
<path fill-rule="evenodd" clip-rule="evenodd" d="M152.523,230.474c8.442,0,13.381-0.135,21.092,3.571
	c2.494,1.199,3.866,2.055,5.987,3.5c28.411,19.365,19.777,70.735-25.182,70.735c-2.613,0-8.323-1.328-10.501-2.146
	c-3.271-1.228-6.016-2.428-8.477-4.173c-3.598-2.551-10.8-8.761-12.009-13.29c11.994,2.795,30.982,19.476,51.71,0.488
	c11.278-10.333,12.969-29.604,3.172-41.471c-7.051-8.54-10.844-9.451-21.185-13.602c-2.377-0.953-4.003-1.766-6.505-2.348
	C151.367,230.673,150.718,230.474,152.523,230.474L152.523,230.474z M70.618,264.562c0.026,2.205,1.207,3.23,2.492,3.757
	l29.678,11.907c3.27,1.586,2.469,6.212,7.57,15.831c22.817,43.017,92.562,30.825,99.527-17.059c0.777-5.348-0.85-3.137,7.588-9.489
	l57.73-42.198c6.771-4.89,11.992-1.422,26.963-6.555c15.575-5.341,28.278-15.573,37.169-29.239
	c6.642-10.209,10.302-21.637,11.12-33.235v-10.079c-0.908-12.954-5.311-25.743-13.021-36.911c-1.13-1.637-2.297-3.294-3.572-4.65
	l-8.535-8.541c-8.9-8.695-28.673-16.914-42.534-16.914c-12.757,0-21.608,0.417-33.313,5.896
	c-5.806,2.718-14.551,8.097-18.709,12.281c-14.265,14.352-20.356,24.954-23.428,45.515c-0.19,1.269-0.26,5.567-0.603,6.988
	c-0.269,1.105-10.301,15.393-12.302,18.058l-25.474,36.512c-2.152,3.273-4.425,5.899-6.323,9.489
	c-14.646-0.327-17.532-0.016-31.193,6.186c-2.941,1.335-4.34-0.158-9.46-2.209c-12.748-5.104-24.699-9.884-37.49-15.001
	l-10.496-4.224c-2.295-0.681-3.224,0.006-3.384,3.004V264.562L70.618,264.562z M240.424,150.77c0-10.275,5.929-20.201,11.206-25.479
	c7.864-7.868,16.616-11.21,29.266-11.21c24.795,0,45.945,28.927,32.675,55.458c-1.17,2.34-1.959,4.126-3.481,6.006
	c-0.801,0.987-1.289,1.341-2.087,2.34c-14.97,18.742-46.374,17.774-60.899-3.433C242.177,167.26,240.424,159.95,240.424,150.77
	L240.424,150.77z M230.938,152.667c0-11.95,5.342-24.673,13.754-33.053c21.341-21.258,54.67-17.633,70.271,2.139
	c8.098,10.262,11.464,18.062,11.464,32.812c0,24.706-23.583,47.538-48.46,45.879c-20.651-1.378-34.068-10.537-42.604-28.163
	C232.851,167.097,230.938,158.597,230.938,152.667z"/>
</svg>
