<?xml version="1.0" encoding="utf-8"?>
<!-- Generator: Adobe Illustrator 16.0.0, SVG Export Plug-In . SVG Version: 6.00 Build 0)  -->
<!DOCTYPE svg PUBLIC "-//W3C//DTD SVG 1.1//EN" "http://www.w3.org/Graphics/SVG/1.1/DTD/svg11.dtd">
<svg version="1.1" id="Layer_1" xmlns="http://www.w3.org/2000/svg" xmlns:xlink="http://www.w3.org/1999/xlink" x="0px" y="0px"
	 width="415px" height="414.996px" viewBox="0 0 415 414.996" enable-background="new 0 0 415 414.996" xml:space="preserve">
<path fill-rule="evenodd" clip-rule="evenodd" d="M151.066,288.1c0.068,13.796,2.986,27.14,12.008,37.134
	c1.158,1.282,2.217,1.953,3.338,3.129c8.514,8.925,21.025,15.827,36.607,19.534c15.996,3.806,35.26,3.661,51.412,0.989
	c11.873-1.963,32.834-8.502,41.344-13.855l-0.027-44.801c-4.32,0.998-23.146,16.213-48.529,13.446
	c-20.189-2.2-27.205-15.598-28.049-34.341c-0.764-6.455-0.779-86.294-0.68-87.58l67.705-0.008l0.004-44.802l-67.994-0.172
	l-0.324-72.344l-32.811,0.001c-4.883-0.038-7.213-1.438-8.041,2.595c-2.785,13.562-3.588,22.499-9.719,34.151
	c-9.633,18.303-27.648,35.159-48.084,39.784v40.77l31.721,0.279L151.066,288.1z"/>
</svg>
