<?xml version="1.0" encoding="utf-8"?>
<!-- Generator: Adobe Illustrator 16.0.0, SVG Export Plug-In . SVG Version: 6.00 Build 0)  -->
<!DOCTYPE svg PUBLIC "-//W3C//DTD SVG 1.1//EN" "http://www.w3.org/Graphics/SVG/1.1/DTD/svg11.dtd">
<svg version="1.1" id="Layer_1" xmlns="http://www.w3.org/2000/svg" xmlns:xlink="http://www.w3.org/1999/xlink" x="0px" y="0px"
	 width="415px" height="414.996px" viewBox="0 0 415 414.996" enable-background="new 0 0 415 414.996" xml:space="preserve">
<path d="M345.358,127.048c-9.754,4.326-20.237,7.249-31.239,8.564c11.229-6.731,19.854-17.39,23.915-30.092
	c-10.511,6.233-22.15,10.76-34.541,13.199c-9.921-10.571-24.058-17.176-39.701-17.176c-30.039,0-54.393,24.353-54.393,54.391
	c0,4.263,0.48,8.414,1.408,12.396c-45.205-2.269-85.283-23.923-112.11-56.831c-4.683,8.033-7.364,17.376-7.364,27.345
	c0,18.871,9.602,35.52,24.197,45.273c-8.917-0.283-17.304-2.729-24.637-6.803c-0.005,0.227-0.005,0.454-0.005,0.684
	c0,26.354,18.749,48.335,43.632,53.335c-4.564,1.242-9.369,1.908-14.33,1.908c-3.505,0-6.912-0.342-10.234-0.977
	c6.922,21.608,27.01,37.334,50.811,37.771c-18.614,14.59-42.068,23.287-67.552,23.287c-4.39,0-8.72-0.259-12.975-0.762
	c24.071,15.433,52.662,24.438,83.378,24.438c100.047,0,154.757-82.881,154.757-154.758c0-2.358-0.053-4.704-0.157-7.037
	C328.846,147.534,338.066,137.955,345.358,127.048z"/>
</svg>
