<?xml version="1.0" encoding="utf-8"?>
<!-- Generator: Adobe Illustrator 16.0.0, SVG Export Plug-In . SVG Version: 6.00 Build 0)  -->
<!DOCTYPE svg PUBLIC "-//W3C//DTD SVG 1.1//EN" "http://www.w3.org/Graphics/SVG/1.1/DTD/svg11.dtd">
<svg version="1.1" id="Layer_1" xmlns="http://www.w3.org/2000/svg" xmlns:xlink="http://www.w3.org/1999/xlink" x="0px" y="0px"
	 width="415px" height="414.996px" viewBox="0 0 415 414.996" enable-background="new 0 0 415 414.996" xml:space="preserve">
<path fill="#010101" d="M316.801,307.104c-0.558,0-1.102,0-1.66,0c-17.838-2.978-29.993-15.776-40.373-27.618
	c-5.84-6.699-14.832-21.846-25.54-20.1c-15.205,2.49-7.647,28.877-14.003,40.188c-5.125,9.133-26.957,7.485-42.013,5.854
	c-47.521-5.124-71.805-30.895-93.093-58.598c-22.758-29.607-40.474-60.588-56.852-94.604c-5.305-11.01-12.355-23.192-12.355-36.837
	c7.703-6.372,20.272-4.182,32.957-4.182c10.753,0,27.547-2.405,35.419,1.676c4.682,2.405,9.406,15.247,13.187,23.437
	c8.676,18.798,16.656,32.327,27.188,47.717c4.561,6.672,11.567,19.255,19.771,17.581c7.967-1.617,8.718-21.561,9.062-34.317
	c0.399-14.487-0.016-32.498-4.116-40.187c-3.873-7.258-10.959-7.402-18.126-11.726c5.964-12.183,22.312-13.4,42.021-13.4
	c16.556,0,39.677-1.861,46.133,9.22c6.573,11.282,2.063,31.626,1.647,46.873c-0.457,17.137-3.378,34.833,8.248,42.706
	c8.934-0.986,13.743-9.835,18.939-16.75c11.367-15.133,18.396-28.232,27.187-47.717c3.608-8.004,7.474-21.775,14.003-24.281
	c9.95-3.823,25.812-0.831,40.373-0.831c11.939,0,33.242-3.35,37.079,5.026c3.181,6.944-6.184,24.482-9.061,29.292
	c-11.039,18.384-21.863,30.094-33.773,46.044c-4.769,6.385-14.603,16.593-14.017,26.801c0.444,7.744,8.104,13.687,14.017,19.257
	c12.785,12.067,21.76,20.859,32.126,34.316c3.895,5.07,12.341,16.048,11.525,22.607C380.195,315.007,332.778,302.18,316.801,307.104
	z"/>
</svg>
