<?xml version="1.0" encoding="utf-8"?>
<!-- Generator: Adobe Illustrator 16.0.0, SVG Export Plug-In . SVG Version: 6.00 Build 0)  -->
<!DOCTYPE svg PUBLIC "-//W3C//DTD SVG 1.1//EN" "http://www.w3.org/Graphics/SVG/1.1/DTD/svg11.dtd">
<svg version="1.1" id="Layer_1" xmlns="http://www.w3.org/2000/svg" xmlns:xlink="http://www.w3.org/1999/xlink" x="0px" y="0px"
	 width="415px" height="414.996px" viewBox="0 0 415 414.996" enable-background="new 0 0 415 414.996" xml:space="preserve">
<g>
	<polygon points="179.335,62.306 158.192,62.306 145.334,116.145 144.013,116.145 130.519,62.306 109.564,62.306 109.564,62.313 
		134.313,143.625 134.313,197.007 155.119,197.007 155.119,141.117 	"/>
	<path d="M185.667,192.024c4.828,4.975,11.272,7.472,19.312,7.493h0.177c8.354-0.021,14.913-2.444,19.691-7.257
		c4.771-4.835,7.161-11.5,7.166-20.002v-51.357c-0.005-7.568-2.437-13.758-7.309-18.558c-4.884-4.813-11.143-7.211-18.797-7.211
		c-8.399,0-15.087,2.271-20.05,6.84c-4.979,4.563-7.47,10.693-7.47,18.384l0.007,51.515
		C178.396,180.313,180.823,187.034,185.667,192.024L185.667,192.024z M197.409,119.614L197.409,119.614
		c0-2.174,0.707-3.928,2.114-5.271c1.411-1.328,3.235-1.988,5.489-1.988c2.439,0,4.417,0.661,5.919,1.988
		c1.5,1.342,2.261,3.097,2.261,5.271v54.116c0,2.674-0.736,4.756-2.212,6.281c-1.47,1.527-3.455,2.289-5.968,2.289
		c-2.441,0-4.313-0.744-5.637-2.23c-1.314-1.501-1.967-3.61-1.967-6.34V119.614z"/>
	<path d="M281.965,97.642v75.43c-1.745,2.157-3.64,3.944-5.722,5.341c-2.07,1.401-3.782,2.091-5.145,2.091
		c-1.732,0-2.985-0.525-3.754-1.583c-0.769-1.053-1.154-2.751-1.154-5.11V97.642h-18.483v83.091
		c0.004,5.898,1.086,10.321,3.245,13.276c2.163,2.952,5.385,4.422,9.654,4.422c3.456,0,7.035-1.054,10.732-3.158
		c3.672-2.111,7.214-5.195,10.626-9.23v10.964h18.467V97.642H281.965z"/>
	<path d="M163.733,235.222H120.07v13.368h14.715v78.738h14.226V248.59h14.723V235.222L163.733,235.222z M186.981,310.959v-51.575
		h12.634v67.943h-12.634v-7.505c-2.325,2.773-4.75,4.874-7.267,6.318c-2.519,1.445-4.966,2.165-7.333,2.165
		c-2.918,0-5.124-1.01-6.598-3.029c-1.484-2.025-2.227-5.057-2.227-9.104v-56.788h12.631v52.077c0,1.615,0.266,2.784,0.799,3.498
		c0.527,0.724,1.385,1.08,2.57,1.08c0.926,0,2.099-0.47,3.522-1.424C184.499,313.657,185.798,312.441,186.981,310.959
		L186.981,310.959L186.981,310.959z M235.93,258.522L235.93,258.522c-1.96,0-3.896,0.543-5.815,1.623
		c-1.911,1.08-3.722,2.651-5.429,4.728v-29.651H211.94v92.106h12.745v-5.222c1.671,2.065,3.464,3.599,5.396,4.583
		c1.936,1,4.136,1.501,6.608,1.501c3.749,0,6.6-1.285,8.585-3.847c1.979-2.569,2.964-6.263,2.964-11.094v-37.69
		c0-5.551-1.049-9.776-3.16-12.685C242.978,259.979,239.919,258.522,235.93,258.522L235.93,258.522z M235.238,311.398
		L235.238,311.398c0,2.17-0.366,3.731-1.095,4.686c-0.727,0.953-1.862,1.431-3.412,1.431c-1.069,0-2.082-0.237-3.045-0.734
		c-0.973-0.484-1.964-1.281-3.001-2.385v-42.34c0.866-0.933,1.731-1.621,2.618-2.072c0.875-0.441,1.761-0.665,2.664-0.665
		c1.712,0,3.014,0.596,3.916,1.781c0.903,1.189,1.354,2.93,1.354,5.226V311.398L235.238,311.398z M294.926,294.944L294.926,294.944
		V277.65c0-6.45-1.55-11.389-4.641-14.825c-3.111-3.441-7.552-5.159-13.331-5.159c-5.648,0-10.26,1.854-13.834,5.563
		c-3.571,3.713-5.349,8.522-5.349,14.421v30.5c0,6.535,1.623,11.671,4.868,15.417c3.258,3.728,7.707,5.598,13.359,5.598
		c6.291,0,11.017-1.756,14.181-5.282c3.171-3.528,4.746-8.774,4.746-15.732v-5.105h-12.997v4.719c0,4.003-0.416,6.58-1.249,7.753
		c-0.829,1.161-2.302,1.751-4.396,1.751c-2.004,0-3.424-0.688-4.258-2.072c-0.837-1.379-1.261-3.866-1.261-7.432v-12.821H294.926
		L294.926,294.944z M270.765,277.522L270.765,277.522c0-2.845,0.447-4.886,1.322-6.115c0.874-1.232,2.318-1.846,4.331-1.846
		c1.919,0,3.322,0.614,4.196,1.846c0.875,1.229,1.314,3.27,1.314,6.115v6.882h-11.164V277.522z"/>
</g>
</svg>
