<?xml version="1.0" encoding="utf-8"?>
<!-- Generator: Adobe Illustrator 16.0.0, SVG Export Plug-In . SVG Version: 6.00 Build 0)  -->
<!DOCTYPE svg PUBLIC "-//W3C//DTD SVG 1.1//EN" "http://www.w3.org/Graphics/SVG/1.1/DTD/svg11.dtd">
<svg version="1.1" id="Layer_1" xmlns="http://www.w3.org/2000/svg" xmlns:xlink="http://www.w3.org/1999/xlink" x="0px" y="0px"
	 width="415px" height="414.996px" viewBox="0 0 415 414.996" enable-background="new 0 0 415 414.996" xml:space="preserve">
<path d="M207.219,47.608v0.004V47.608c-76.287,0-138.578,20.511-138.578,45.976c0,6.709,16.636,102.882,23.234,141.022
	c2.959,17.105,47.162,42.185,115.309,42.185l0.07-0.204v0.204c68.146,0,112.35-25.079,115.309-42.185
	c6.599-38.141,23.235-134.313,23.235-141.022C345.798,68.119,283.506,47.608,207.219,47.608z M207.219,245.894
	c-24.329,0-44.051-19.725-44.051-44.051c0-24.332,19.722-44.053,44.051-44.053s44.051,19.721,44.051,44.053
	C251.27,226.169,231.548,245.894,207.219,245.894z M207.194,107.794c-49.015-0.079-88.733-8.595-88.719-19.025
	c0.017-10.432,39.768-18.82,88.781-18.74c49.013,0.08,88.733,8.593,88.716,19.025C295.956,99.487,256.208,107.872,207.194,107.794z"
	/>
<path d="M306.82,272.833c-2.107,0-3.795,1.491-3.795,1.491s-34.128,27.023-95.807,27.025c-61.679-0.002-95.807-27.025-95.807-27.025
	s-1.688-1.491-3.794-1.491c-2.516,0-4.902,1.69-4.902,5.42c0,0.395,0.037,0.787,0.11,1.173c5.297,28.349,9.166,48.463,9.848,51.524
	c4.623,20.854,45.414,36.589,94.541,36.592l0,0h0.004h0.004l0,0c49.128-0.003,89.918-15.738,94.541-36.592
	c0.682-3.062,4.551-23.176,9.848-51.524c0.073-0.386,0.11-0.778,0.11-1.173C311.722,274.523,309.335,272.833,306.82,272.833z"/>
</svg>
