<?xml version="1.0" encoding="utf-8"?>
<!-- Generator: Adobe Illustrator 16.0.0, SVG Export Plug-In . SVG Version: 6.00 Build 0)  -->
<!DOCTYPE svg PUBLIC "-//W3C//DTD SVG 1.1//EN" "http://www.w3.org/Graphics/SVG/1.1/DTD/svg11.dtd">
<svg version="1.1" id="Layer_1" xmlns="http://www.w3.org/2000/svg" xmlns:xlink="http://www.w3.org/1999/xlink" x="0px" y="0px"
	 width="415px" height="414.996px" viewBox="0 0 415 414.996" enable-background="new 0 0 415 414.996" xml:space="preserve">
<path d="M105.395,127.441h0.015h26.649c1.524-0.002,2.758-1.242,2.76-2.757c0-0.01-0.325-22.853-0.325-29.199v-0.078
	c0-5.213,1.094-9.76,3.004-13.572l0.908-1.712c-0.099,0.019-0.2,0.065-0.304,0.166l-51.777,51.347c-0.1,0.08-0.16,0.188-0.192,0.302
	c1.071-0.529,2.536-1.255,2.743-1.346C93.379,128.555,98.849,127.441,105.395,127.441L105.395,127.441z M312.743,121.851
	c3.615,19.385,8.18,96.2,5.831,121.646c-3.712,40.253-9.852,64.221-12.391,72.076c-12.827,39.789-23.768,40.806-54.826,40.806
	c-39.618,0-51.741-5.884-51.741-37.569c0-34.908,16.423-35.647,44.333-34.875c3.999,0.096-0.23,4.002-0.23,10.766
	c0,6.795,2.617,9.475-0.987,9.475c-8.068,0-18.964-1.157-18.964,9.858c0,13.616,6.539,13.176,23.689,13.176
	c21.152,0,25.198-2.639,25.198-21.906c0-31.67-8.957-36.523-21.298-37.944c-13.654-1.601-27.086-3.652-33.566-5.944
	c-16.402-5.825-15.231-27.543-15.231-33.681c0-0.925-1.295-0.884-1.295,0c0,8.693-0.623,20.703-5.093,34.236
	c-1.391,3.911-2.408,6.558-2.425,6.59c-5.145,10.787-13.781,7.092-27.538,5.332c-13.786-1.757-43.193-7.891-56.068-13.403
	c-5.775-2.68-7.735-5.223-10.676-11.307c-7.588-15.646-15.573-67.095-16.562-74.458c-1.182-9.52-1.234-14.434-1.234-14.434
	c-0.015-6.022,0.604-11.917,4.163-16.696c1.787-2.406,4.141-4.44,7.463-5.949c3.318-1.508,7.664-2.462,13.347-2.462h26.653
	c5.807-0.008,10.498-4.714,10.502-10.498c0-0.04-0.091-5.854-0.166-12.347c-0.079-6.479-0.164-13.771-0.164-16.862
	c0.01-5.47,1.397-9.381,3.535-12.439c3.191-4.573,8.926-7.538,14.11-8.99c6.518-1.822,31.921-3.422,48.353,3.188
	c6.172,2.489,11.685,9.672,12.832,17.532c9.561-0.293,25.396-0.422,38.865,1.165c16.736,1.974,30.064,4.434,36.632,6.807
	C303.888,104.937,310.625,110.52,312.743,121.851L312.743,121.851L312.743,121.851z M258.6,206.75
	c7.201,0.253,13.811,1.771,19.146,4.149c-0.044-8.104-1.815-20.071-14.477-20.509c-11.439-0.4-14.668,9.203-15.639,17.021
	C251.074,206.857,254.764,206.616,258.6,206.75L258.6,206.75z"/>
</svg>
