<?xml version="1.0" encoding="utf-8"?>
<!-- Generator: Adobe Illustrator 16.0.0, SVG Export Plug-In . SVG Version: 6.00 Build 0)  -->
<!DOCTYPE svg PUBLIC "-//W3C//DTD SVG 1.1//EN" "http://www.w3.org/Graphics/SVG/1.1/DTD/svg11.dtd">
<svg version="1.1" id="Layer_1" xmlns="http://www.w3.org/2000/svg" xmlns:xlink="http://www.w3.org/1999/xlink" x="0px" y="0px"
	 width="415px" height="414.996px" viewBox="0 0 415 414.996" enable-background="new 0 0 415 414.996" xml:space="preserve">
<path fill="#010101" d="M121.962,179.937c0-32.242,8.556-52.757,37.213-57.356c10.009-1.964,30.855-1.279,44.106-1.279v49.248
	c0,0.447,0.062,1.247,0.168,1.663c0.555,1.983,2.362,3.447,4.494,3.454c1.205,0,2.341-0.623,3.506-1.77L334.294,51.085
	l-82.462-0.015h-91.451c-72.373,0-109.297,41.684-109.297,119.495v163.261l70.878-70.954V179.937z M295.382,154.46v82.926
	c0,32.243-8.55,52.758-37.214,57.358c-10.011,1.963-30.85,1.278-44.1,1.278v-49.248c0-0.447-0.06-1.247-0.169-1.654
	c-0.561-1.992-2.362-3.455-4.502-3.463c-1.206,0-2.331,0.623-3.508,1.778L83.049,366.238l82.457,0.015h91.455
	c72.37,0,109.306-41.674,109.306-119.495V83.497L295.382,154.46z"/>
</svg>
