<?xml version="1.0" encoding="utf-8"?>
<!-- Generator: Adobe Illustrator 16.0.0, SVG Export Plug-In . SVG Version: 6.00 Build 0)  -->
<!DOCTYPE svg PUBLIC "-//W3C//DTD SVG 1.1//EN" "http://www.w3.org/Graphics/SVG/1.1/DTD/svg11.dtd">
<svg version="1.1" id="Layer_1" xmlns="http://www.w3.org/2000/svg" xmlns:xlink="http://www.w3.org/1999/xlink" x="0px" y="0px"
	 width="415px" height="414.996px" viewBox="0 0 415 414.996" enable-background="new 0 0 415 414.996" xml:space="preserve">
<g>
	<path fill-rule="evenodd" clip-rule="evenodd" d="M357.654,260.769c-0.958,3.177-2.035,6.203-3.211,9.09l-1.378,3.188
		c-32.427,71.199-243.317,79.506-277.986-12.342l-1.163-3.242c-4.91-14.454-7.086-31.007-7.086-49.499
		c0-32.828,10.231-45.213,23.963-62.713c-10.5-37.426,3.77-63.005,3.77-63.005s22.079-4.577,63.813,25.309
		c22.617-9.693,82.928-10.5,111.469-2.153c17.501-11.579,49.543-28.002,62.466-23.403c3.502,5.632,11.041,22.056,4.579,58.137
		c4.384,7.915,27.193,24.771,27.28,72.427c-0.367,17.577-2.197,32.419-5.591,44.967L357.654,260.769L357.654,260.769z
		 M327.646,249.45c0-23.694-11.018-54.389-54.388-54.389c-3.177,0-27.938,2.692-52.417,2.692c-27.571,0-56.125-2.692-60.496-2.692
		c-44.157,0-55.099,35.326-55.099,51.513C105.247,343.673,327.646,340.114,327.646,249.45z"/>
	<path fill-rule="evenodd" clip-rule="evenodd" d="M179.557,249.18c0-18.983-10.326-34.375-23.066-34.375
		c-12.739,0-23.065,15.392-23.065,34.375s10.326,32.22,23.065,32.22C169.23,281.4,179.557,268.165,179.557,249.18z"/>
	<path fill-rule="evenodd" clip-rule="evenodd" d="M304.217,249.18c0-18.983-10.324-34.375-23.064-34.375
		c-12.737,0-23.064,15.392-23.064,34.375s10.327,32.22,23.064,32.22C293.893,281.4,304.217,268.165,304.217,249.18z"/>
	<path fill-rule="evenodd" clip-rule="evenodd" d="M217.162,302.045c-8.244,0-14.271-7.084-14.271-10.772
		c0-0.89,0.723-1.616,1.616-1.616c0.893,0,1.616,0.726,1.616,1.616c0,1.824,4.581,7.54,11.039,7.54c5.6,0,9.781-3.98,9.781-7.54
		c0-0.89,0.725-1.616,1.616-1.616s1.613,0.726,1.613,1.616C230.174,296.368,224.831,302.045,217.162,302.045z"/>
	<circle fill-rule="evenodd" clip-rule="evenodd" cx="216.983" cy="277.902" r="5.565"/>
	<ellipse fill-rule="evenodd" clip-rule="evenodd" cx="156.491" cy="249.18" rx="15.168" ry="22.259"/>
	<ellipse fill-rule="evenodd" clip-rule="evenodd" cx="281.154" cy="249.18" rx="15.169" ry="22.259"/>
</g>
</svg>
