<?xml version="1.0" encoding="utf-8"?>
<!-- Generator: Adobe Illustrator 16.0.0, SVG Export Plug-In . SVG Version: 6.00 Build 0)  -->
<!DOCTYPE svg PUBLIC "-//W3C//DTD SVG 1.1//EN" "http://www.w3.org/Graphics/SVG/1.1/DTD/svg11.dtd">
<svg version="1.1" id="Layer_1" xmlns="http://www.w3.org/2000/svg" xmlns:xlink="http://www.w3.org/1999/xlink" x="0px" y="0px"
	 width="415px" height="414.996px" viewBox="0 0 415 414.996" enable-background="new 0 0 415 414.996" xml:space="preserve">
<path fill-rule="evenodd" clip-rule="evenodd" d="M193.907,209.278c0-4.282-0.792-8.955-3.277-12.546
	c-4.986-7.195-15.691-9.484-23.143-4.949c-3.766,2.292-5.858,6.298-7.04,10.409c-2.344,8.163-1.271,17.48,0.37,25.68
	c0.523,2.622,1.065,5.248,1.8,7.821c0.267,0.929,0.39,2.278,0.993,3.052c1.054,1.351,3.626,1.741,5.205,1.475
	c4.733-0.795,3.562-8.591,3.4-11.905c-0.377-7.764-2.666-15.3-0.45-23.022c0.939-3.268,2.753-6.942,6.052-8.362
	c2.979-1.282,5.985,0.287,7.164,3.196c1.91,4.711,1.434,10.152,2.632,15.056c0.408,1.666,0.854,3.315,1.605,4.869
	c0.218,0.449,0.519,1.382,1.149,1.327c1.534-0.141,3.714-2.701,4.863-3.65c3.716-3.07,7.531-6.356,11.808-8.629
	c2.013-1.069,5.323-2.799,7.379-0.982c0.524,0.464,0.946,1.018,1.321,1.605c2.415,3.784,0.017,6.731-1.554,10.331
	c-2.033,4.657-4.117,9.269-7.062,13.43c-2.533,3.579-5.992,6.717-8.017,10.627c-1.302,2.518-2.039,5.276-1.501,8.117
	c0.438,2.297,2.218,3.686,4.561,3.146c1.755-0.402,2.943-1.907,3.942-3.294c1.782-2.476,3.438-5.043,5.208-7.527
	c3.427-4.806,7.471-9.297,10.352-14.464c3.473-6.227,5.147-13.273,5.145-20.366c-0.002-5.797-2.104-14.656-8.855-15.871
	c-1.271-0.227-2.723-0.102-3.984,0.117c-1.568,0.273-3.144,0.783-4.574,1.477c-3.841,1.858-7.159,4.632-10.013,7.785
	c-1.778,1.966-3.372,4.438-5.483,6.051L193.907,209.278L193.907,209.278z M136.494,319.293c-2.097,0.235-3.679,1.33-5.059,2.887
	c-0.95,1.072-1.853,2.042-2.399,3.395c-3.011,7.447,5.016,14.48,10.559,17.997c6.17,3.914,12.909,6.814,19.776,9.259
	c15.486,5.512,33.651,9.04,49.734,4.113c4.781-1.464,9.508-4.141,12.982-7.757c1.959-2.039,3.302-5.124-0.289-6.43
	c-2.128-0.771-4.711,1.194-6.643,1.973c-4.555,1.838-9.277,3.23-14.168,3.822c-6.441,0.781-12.24-0.636-18.448-2.19
	c-5.302-1.324-10.663-2.65-15.791-4.562c-4.372-1.63-8.717-3.568-12.544-6.275c-1.145-0.81-2.514-1.53-3.451-2.584
	c-3.063-3.448-5.366-7.481-8.651-10.761c-1.419-1.418-3.437-3.13-5.608-2.888V319.293L136.494,319.293z M133.543,291.692
	l-0.003-0.002c1.396-0.184,3.53-0.357,4.87,0.102c2.879,0.989,5.158,4.186,7.38,6.141c3.649,3.215,7.556,6.102,11.807,8.476
	c10.815,6.033,24.039,9.857,36.454,10.162c4.735,0.116,9.459,0.049,14.168-0.609c1.991-0.275,5.038-1.455,6.938-0.562
	c4.349,2.046,5.758,11.252,0.886,13.531c-1.722,0.805-4.041,0.945-5.904,1.256c-5.095,0.849-10.344,1.215-15.495,0.862
	c-17.92-1.229-34.584-7.233-49.293-17.64c-5.276-3.734-10.562-7.969-14.579-13.071c-1.385-1.762-4.284-5.647-1.653-7.581
	C130.38,291.831,132.07,291.886,133.543,291.692L133.543,291.692z M141.071,258.929c-5.792,0.83-7.477,5.472-6.405,10.71
	c1.369,6.705,6.642,11.817,11.865,15.844c13.382,10.315,30.667,15.893,47.52,15.155c6.576-0.287,13.74-1.375,19.776-4.165
	c3.236-1.495,6.622-6.884,2.215-9.191c-0.604-0.315-1.394-0.511-2.066-0.621c-1.926-0.315-4.079,0.505-5.903,1.027
	c-3.216,0.924-6.43,1.869-9.741,2.4c-9.892,1.59-20.59-0.671-28.779-6.533c-6.62-4.738-11.976-10.99-17.03-17.309
	c-3.096-3.869-5.891-8.114-11.452-7.317H141.071L141.071,258.929z M187.561,65.89l-0.002,0.001c3.34-0.438,6.983-0.067,10.332,0.08
	c6.028,0.264,12.016,0.776,18.004,1.609c12.771,1.778,25.104,4.244,36.897,9.657c29.715,13.644,48.428,42.006,59.335,71.83
	c3.58,9.783,7.379,20.159,8.657,30.548c1.014,8.214,0.278,16.667-1.938,24.646c-6.201,22.311-22.35,41.058-40.375,54.953
	c-8.945,6.896-19.575,11.642-27.445,19.873c-7.738,8.092-12.055,18.496-12.544,29.663c-0.267,6.048,0.593,12.048,1.529,18.006
	c0.457,2.907,0.931,6.11,0.141,9.001c-0.462,1.688-1.714,3.135-3.597,3.043c-1.803-0.086-5.025-0.907-6.206-2.397
	c-0.631-0.797-0.671-2.474-0.894-3.449c-0.751-3.26-1.176-6.582-1.646-9.887c-2.3-16.13-0.203-33.518,7.612-47.965
	c2.903-5.366,6.725-10.398,11.318-14.422c3.989-3.491,8.746-6.201,12.987-9.395c7.599-5.723,14.899-12.019,21.388-18.984
	c9.479-10.176,17.729-22.129,20.874-35.863c1.813-7.916,1.013-15.959-0.159-23.908c-2.493-16.931-7.671-33.05-17.459-47.227
	c-2.503-3.627-5.446-6.927-8.556-10.035c-21.862-21.863-54.295-27.285-83.976-25.25c-10.577,0.725-22.025,1.615-32.025,5.389
	c-8.493,3.207-14.385,9.884-19.564,17.057c-2.219,3.07-5.729,8.633-10.247,7.924c-2.939-0.458-3.681-4.795-4.024-7.186
	c-1.061-7.401-0.555-15.028,0.162-22.434c0.187-1.919,0.426-3.836,0.604-5.755c0.064-0.683,0.01-1.879,0.537-2.39
	c1.016-0.979,2.938-1.468,4.198-2.076c3.387-1.641,6.836-3.198,10.331-4.597c9.599-3.841,19.415-7.026,29.663-8.608
	C176.824,66.517,182.236,66.59,187.561,65.89L187.561,65.89z M193.907,209.278L193.907,209.278L193.907,209.278L193.907,209.278z
	 M136.494,319.293L136.494,319.293L136.494,319.293L136.494,319.293z M133.543,291.692L133.543,291.692L133.543,291.692
	L133.543,291.692z M141.071,258.929L141.071,258.929L141.071,258.929L141.071,258.929z M187.561,65.89L187.561,65.89L187.561,65.89z
	"/>
</svg>
