<?xml version="1.0" encoding="utf-8"?>
<!-- Generator: Adobe Illustrator 16.0.0, SVG Export Plug-In . SVG Version: 6.00 Build 0)  -->
<!DOCTYPE svg PUBLIC "-//W3C//DTD SVG 1.1//EN" "http://www.w3.org/Graphics/SVG/1.1/DTD/svg11.dtd">
<svg version="1.1" id="Layer_1" xmlns="http://www.w3.org/2000/svg" xmlns:xlink="http://www.w3.org/1999/xlink" x="0px" y="0px"
	 width="415px" height="414.996px" viewBox="0 0 415 414.996" enable-background="new 0 0 415 414.996" xml:space="preserve">
<path fill-rule="evenodd" clip-rule="evenodd" d="M188.076,276.698l-11.543-31.378c0,0-18.759,20.921-46.888,20.921
	c-24.891-0.001-42.562-21.642-42.562-56.27c0-44.364,22.359-60.234,44.364-60.234c31.738,0,41.838,20.559,50.495,46.89
	l11.544,36.069c11.539,34.985,33.181,63.118,95.579,63.118c44.729,0,75.025-13.705,75.025-49.771
	c0-29.217-16.595-44.366-47.613-51.581l-23.083-5.049c-15.868-3.607-20.558-10.099-20.558-20.92
	c0-12.264,9.736-19.477,25.609-19.477c17.312,0,26.689,6.493,28.134,22.003l36.067-4.33c-2.886-32.461-25.247-45.806-62.039-45.806
	c-32.459,0-64.201,12.264-64.201,51.578c0,24.526,11.903,40.038,41.837,47.25l24.531,5.771c18.395,4.33,24.522,11.903,24.522,22.363
	c0,13.342-12.983,18.754-37.51,18.754c-36.43,0-51.577-19.117-60.236-45.447l-11.902-36.066
	c-15.146-46.891-39.313-64.203-87.287-64.203c-53.02,0-81.154,33.543-81.154,90.531c0,54.826,28.135,84.4,78.633,84.4
	C168.596,295.813,188.076,276.698,188.076,276.698L188.076,276.698z"/>
</svg>
