<?xml version="1.0" encoding="utf-8"?>
<!-- Generator: Adobe Illustrator 16.0.0, SVG Export Plug-In . SVG Version: 6.00 Build 0)  -->
<!DOCTYPE svg PUBLIC "-//W3C//DTD SVG 1.1//EN" "http://www.w3.org/Graphics/SVG/1.1/DTD/svg11.dtd">
<svg version="1.1" id="Layer_1" xmlns="http://www.w3.org/2000/svg" xmlns:xlink="http://www.w3.org/1999/xlink" x="0px" y="0px"
	 width="415px" height="414.996px" viewBox="0 0 415 414.996" enable-background="new 0 0 415 414.996" xml:space="preserve">
<g>
	<path fill-rule="evenodd" clip-rule="evenodd" d="M107.855,132.377c19.812,0,32.15-13.141,32.15-29.546
		c-0.369-16.771-12.338-29.54-31.771-29.54c-19.441,0-32.15,12.769-32.15,29.54c0,16.405,12.334,29.546,31.402,29.546H107.855
		L107.855,132.377z M136.27,326.683V155.711H79.443v170.972H136.27z"/>
	<path fill-rule="evenodd" clip-rule="evenodd" d="M167.715,326.683h56.826v-95.479c0-5.108,0.369-10.217,1.871-13.863
		c4.109-10.213,13.457-20.788,29.156-20.788c20.568,0,28.787,15.683,28.787,38.664v91.466h56.826V228.65
		c0-52.514-28.033-76.952-65.426-76.952c-30.658,0-44.117,17.139-51.59,28.81h0.375v-24.797h-56.826
		C168.461,171.75,167.715,326.683,167.715,326.683L167.715,326.683z"/>
</g>
</svg>
