<?xml version="1.0" encoding="utf-8"?>
<!-- Generator: Adobe Illustrator 16.0.0, SVG Export Plug-In . SVG Version: 6.00 Build 0)  -->
<!DOCTYPE svg PUBLIC "-//W3C//DTD SVG 1.1//EN" "http://www.w3.org/Graphics/SVG/1.1/DTD/svg11.dtd">
<svg version="1.1" id="Layer_1" xmlns="http://www.w3.org/2000/svg" xmlns:xlink="http://www.w3.org/1999/xlink" x="0px" y="0px"
	 width="415px" height="414.996px" viewBox="0 0 415 414.996" enable-background="new 0 0 415 414.996" xml:space="preserve">
<g>
	<path d="M128.05,343.716c-31.029-17.869-52.655-44.19-66.757-77.104l66.757-60.176V343.716z"/>
	<path d="M194.806,366.281c-16.014,0-32.904-4.699-50.773-13.163v-76.167h209.686c-25.385,51.717-73.144,89.33-128.821,89.33
		H194.806z"/>
	<path d="M292.599,71.033c47.958,29.154,77.104,79.927,77.104,136.341c0,17.869-2.82,35.727-8.467,52.657h-68.637V71.033z"/>
	<path d="M209.86,47.532c23.501,0,45.129,4.697,65.816,14.109v107.176c-5.644-2.82-118.482-108.124-121.295-110.945
		C173.186,51.292,191.992,47.532,209.86,47.532z"/>
	<path d="M197.635,119.932L55.651,248.743c-3.769-13.161-5.644-27.271-5.644-41.369c0-60.173,31.967-114.704,87.442-141.973
		L197.635,119.932z"/>
</g>
</svg>
