<?xml version="1.0" encoding="utf-8"?>
<!-- Generator: Adobe Illustrator 16.0.0, SVG Export Plug-In . SVG Version: 6.00 Build 0)  -->
<!DOCTYPE svg PUBLIC "-//W3C//DTD SVG 1.1//EN" "http://www.w3.org/Graphics/SVG/1.1/DTD/svg11.dtd">
<svg version="1.1" id="Layer_1" xmlns="http://www.w3.org/2000/svg" xmlns:xlink="http://www.w3.org/1999/xlink" x="0px" y="0px"
	 width="415px" height="414.996px" viewBox="0 0 415 414.996" enable-background="new 0 0 415 414.996" xml:space="preserve">
<path fill-rule="evenodd" clip-rule="evenodd" d="M50.779,96.375c7.21-16.217,20.18-20.234,37.061-20.105
	c74.959,0.568,149.926,0.257,224.889,0.234c8.633-0.002,17.718-0.113,23.709,6.929c3.967,4.663,8.232,11.075,8.287,16.743
	c0.356,36.423,1.59,73.015-1.266,109.251c-4.704,59.69-50.059,110.163-108.383,124.719C151.73,354.947,69.97,302.966,53.589,218.712
	c-1.169-6.015-1.884-12.118-2.81-18.181C50.779,165.812,50.779,131.094,50.779,96.375z M198.614,209.408
	c-3.887-3.552-7.368-6.617-10.718-9.818c-14.655-14.001-29.184-28.134-43.935-42.033c-9.552-9-21.31-8.849-29.777-0.014
	c-7.968,8.314-7.96,20.788,0.771,29.251c22.775,22.083,45.719,43.995,68.822,65.733c9.317,8.769,19.195,9.367,28.354,0.846
	c23.863-22.214,47.566-44.631,70.582-67.713c11.664-11.697,5.012-30.719-11.116-34.283c-8.345-1.846-14.671,2.106-20.444,7.68
	C233.853,175.762,216.436,192.348,198.614,209.408z"/>
</svg>
