<?xml version="1.0" encoding="utf-8"?>
<!-- Generator: Adobe Illustrator 16.0.0, SVG Export Plug-In . SVG Version: 6.00 Build 0)  -->
<!DOCTYPE svg PUBLIC "-//W3C//DTD SVG 1.1//EN" "http://www.w3.org/Graphics/SVG/1.1/DTD/svg11.dtd">
<svg version="1.1" id="Layer_1" xmlns="http://www.w3.org/2000/svg" xmlns:xlink="http://www.w3.org/1999/xlink" x="0px" y="0px"
	 width="414.998px" height="414.996px" viewBox="0 0 414.998 414.996" enable-background="new 0 0 414.998 414.996"
	 xml:space="preserve">
<g>
	<path fill-rule="evenodd" clip-rule="evenodd" d="M291.115,258.438c-55.949-35.995-110.162-36.275-165.605-0.553
		c-0.662-3.392-1.469-6.266-1.744-9.19c-0.893-9.509-0.498-19.295-2.682-28.481c-1.984-8.356-5.072-17.546-10.648-23.652
		c-5.721-6.265-6.4-11.604-4.701-18.73c16.262-68.13,95.068-101.477,155.213-65.564c26.859,16.039,44.035,39.14,49.338,70.247
		c0.615,3.614-0.832,9.01-3.367,11.468c-8.088,7.831-11.779,17.112-12.637,27.986C293.357,233.627,292.266,245.274,291.115,258.438z
		"/>
	<path fill-rule="evenodd" clip-rule="evenodd" d="M207.371,311.242c-21.648-0.006-43.32-0.586-64.938,0.256
		c-9.873,0.383-13.012-3.24-13.184-12.289c-0.123-6.334-0.584-12.872-2.295-18.923c-3-10.606,1.551-16.693,10.143-21.741
		c28.178-16.552,58.775-19.812,90.434-16.367c19.807,2.157,38.686,7.505,55.141,19.605c4.855,3.567,7.256,7.329,6.266,13.608
		c-1.432,9.106-2.328,18.321-2.98,27.521c-0.455,6.51-3.455,8.53-9.812,8.448C253.225,311.066,230.297,311.246,207.371,311.242z"/>
	<path fill-rule="evenodd" clip-rule="evenodd" d="M287.373,326.466c3.656-33.902,7.016-67.836,11.072-101.691
		c2.547-21.248,21.119-37.659,41.564-37.915c19.812-0.249,36.279,14.025,39.672,34.39c3.145,18.878-8.773,37.608-29.139,43.594
		c-7.717,2.269-11.623,6.308-14.381,13.343c-4.998,12.745-10.805,25.172-16.039,37.827c-1.688,4.08-3.689,8.455-3.727,12.707
		c-0.096,12.023-1.023,12.82-19.682,12.48C285.861,341.005,286.672,333.824,287.373,326.466z"/>
	<path fill-rule="evenodd" clip-rule="evenodd" d="M128.387,330.347c-0.738,1.652-1.959,8.598-4.414,9.066
		c-7.209,1.375-14.92,0.334-22.396-0.244c-0.83-0.062-1.457-3.223-2.109-4.975c-7.84-21.031-15.35-42.197-23.84-62.962
		c-1.246-3.048-6.939-4.735-10.9-6.136c-18.076-6.402-29.225-20.7-29.314-38.185c-0.088-17.136,10.834-32.513,26.916-37.896
		c24.105-8.069,50.814,8.156,54.473,34.872C121.502,258.24,124.395,292.842,128.387,330.347z"/>
</g>
</svg>
