<?xml version="1.0" encoding="utf-8"?>
<!-- Generator: Adobe Illustrator 16.0.0, SVG Export Plug-In . SVG Version: 6.00 Build 0)  -->
<!DOCTYPE svg PUBLIC "-//W3C//DTD SVG 1.1//EN" "http://www.w3.org/Graphics/SVG/1.1/DTD/svg11.dtd">
<svg version="1.1" id="Layer_1" xmlns="http://www.w3.org/2000/svg" xmlns:xlink="http://www.w3.org/1999/xlink" x="0px" y="0px"
	 width="415px" height="414.996px" viewBox="0 0 415 414.996" enable-background="new 0 0 415 414.996" xml:space="preserve">
<path fill-rule="evenodd" clip-rule="evenodd" d="M80.854,129.021c112.828,0,204.622,92.294,204.622,205.736h48.781
	c0-140.342-113.677-254.516-253.403-254.516V129.021L80.854,129.021z M148.317,300.681c0,18.662-15.132,33.789-33.788,33.789
	c-18.654,0-33.787-15.127-33.787-33.789c0-18.664,15.133-33.789,33.787-33.789C133.187,266.892,148.317,282.019,148.317,300.681
	L148.317,300.681z M80.781,215.497v-48.781c92.251,0,167.303,75.361,167.303,167.99h-48.782c0-31.895-12.335-61.852-34.735-84.357
	C142.2,227.876,112.445,215.497,80.781,215.497z"/>
</svg>
