<?xml version="1.0" encoding="utf-8"?>
<!-- Generator: Adobe Illustrator 16.0.0, SVG Export Plug-In . SVG Version: 6.00 Build 0)  -->
<!DOCTYPE svg PUBLIC "-//W3C//DTD SVG 1.1//EN" "http://www.w3.org/Graphics/SVG/1.1/DTD/svg11.dtd">
<svg version="1.1" id="Layer_1" xmlns="http://www.w3.org/2000/svg" xmlns:xlink="http://www.w3.org/1999/xlink" x="0px" y="0px"
	 width="415px" height="414.996px" viewBox="0 0 415 414.996" enable-background="new 0 0 415 414.996" xml:space="preserve">
<path fill-rule="evenodd" clip-rule="evenodd" d="M345.466,131.972c2.091-11.726,2.044-23.781-5.196-32.899
	c-10.104-12.785-31.607-13.254-46.341-10.999c-11.984,1.833-52.521,19.716-66.315,62.534c24.439-1.857,37.246,1.762,34.896,28.669
	c-0.987,11.256-6.672,23.593-13.019,35.414c-7.331,13.63-21.08,40.397-39.103,21.104c-16.239-17.368-15.019-50.573-18.731-72.686
	c-2.065-12.409-4.253-27.87-8.317-40.631c-3.502-10.975-11.538-24.205-21.361-27.072c-10.552-3.102-23.596,1.739-31.256,6.251
	c-24.392,14.334-42.981,34.732-64.083,51.558v1.574c4.183,3.995,5.311,10.552,11.467,11.445
	c14.523,2.138,28.366-13.537,38.022,2.772c5.875,9.964,7.709,20.891,11.47,31.631c5.028,14.312,8.905,29.893,13.019,46.341
	c6.956,27.871,15.509,69.514,39.598,79.71c12.289,5.219,30.762-1.761,40.112-7.307c25.335-14.994,45.075-36.73,61.972-58.844
	C320.932,208.207,342.246,148.916,345.466,131.972z"/>
</svg>
