<?xml version="1.0" encoding="utf-8"?>
<!-- Generator: Adobe Illustrator 16.0.0, SVG Export Plug-In . SVG Version: 6.00 Build 0)  -->
<!DOCTYPE svg PUBLIC "-//W3C//DTD SVG 1.1//EN" "http://www.w3.org/Graphics/SVG/1.1/DTD/svg11.dtd">
<svg version="1.1" id="Layer_1" xmlns="http://www.w3.org/2000/svg" xmlns:xlink="http://www.w3.org/1999/xlink" x="0px" y="0px"
	 width="415px" height="414.996px" viewBox="0 0 415 414.996" enable-background="new 0 0 415 414.996" xml:space="preserve">
<g>
	<path fill-rule="evenodd" clip-rule="evenodd" d="M183.661,173.492c0,30.482,16.205,42.674,32.916,42.674h10.641v-87.38h-12.92
		C198.853,128.786,183.661,141.737,183.661,173.492z"/>
	<path fill-rule="evenodd" clip-rule="evenodd" d="M336.489,196.938L272.753,88.042c-7.67-13.285-5.412-12.828-19.658-12.926
		h-145.34c-18.13,0-32.964,14.833-32.964,32.963v198.837c0,18.13,14.835,32.964,32.964,32.964h145.199
		c8.863,0,10.576,0.141,15.109-8.037l68.742-114.57C340.972,210.396,341.81,204.057,336.489,196.938z M246.716,301.006
		c0,1.266-0.508,2.026-2.027,2.026h-15.707c-1.006,0-1.764-1.014-1.764-1.774v-68.839H214.55l-35.195,68.839
		c-0.506,1.268-1.52,1.774-3.039,1.774h-17.979c-2.02,0-3.285-1.774-2.02-4.062l38.736-70.106
		c-20.758-9.145-32.41-27.685-32.41-52.83c0-41.912,24.059-63.503,52.414-63.503h28.871c1.771,0,2.787,0.76,2.787,2.542V301.006z"/>
</g>
</svg>
