<?xml version="1.0" encoding="utf-8"?>
<!-- Generator: Adobe Illustrator 16.0.0, SVG Export Plug-In . SVG Version: 6.00 Build 0)  -->
<!DOCTYPE svg PUBLIC "-//W3C//DTD SVG 1.1//EN" "http://www.w3.org/Graphics/SVG/1.1/DTD/svg11.dtd">
<svg version="1.1" id="Layer_1" xmlns="http://www.w3.org/2000/svg" xmlns:xlink="http://www.w3.org/1999/xlink" x="0px" y="0px"
	 width="415px" height="414.996px" viewBox="0 0 415 414.996" enable-background="new 0 0 415 414.996" xml:space="preserve">
<path fill-rule="evenodd" clip-rule="evenodd" d="M236.78,322.65c-46.408,0-92.812,0.295-139.217-0.125
	c-23.334-0.208-33.082-7.57-39.811-31.131c-10.636-37.233-10.367-75.513-7.312-113.671c1.294-16.17,3.948-32.548,8.583-48.058
	c6.328-21.197,16.607-28.108,38.571-28.221c75.316-0.384,150.631-0.611,225.944-0.336c26.859,0.1,38.386,8.596,44.057,34.539
	c11.088,50.738,11.146,101.953,0.052,152.697c-5.659,25.889-17.019,33.966-44.108,34.494c-28.916,0.566-57.848,0.128-86.772,0.128
	C236.771,322.862,236.773,322.757,236.78,322.65z M179.244,273.015c32.441-20.919,62.257-40.144,94.993-61.251
	c-32.936-21.287-62.751-40.561-94.993-61.399C179.244,192.257,179.244,230.626,179.244,273.015z"/>
</svg>
